<?xml version="1.0" encoding="UTF-8" standalone="no"?>
<!DOCTYPE svg PUBLIC "-//W3C//DTD SVG 1.1//EN" "http://www.w3.org/Graphics/SVG/1.1/DTD/svg11.dtd">
<svg version="1.1" xmlns="http://www.w3.org/2000/svg" xmlns:xlink="http://www.w3.org/1999/xlink" preserveAspectRatio="xMidYMid meet" viewBox="0 0 23 20" width="23" height="20"><defs>
  <path
    d="M19.99 17.56L19.98 17.73L19.95 17.89L19.91 18.06L19.87 18.21L19.87 18.21L19.81 18.37L19.74 18.52L19.67 18.66L19.59 18.8L19.49 18.93L19.4 19.06L19.29 19.18L19.18 19.29L19.06 19.4L18.93 19.49L18.8 19.59L18.66 19.67L18.52 19.74L18.37 19.81L18.21 19.87L18.06 19.91L17.89 19.95L17.73 19.98L17.56 19.99L17.39 20L2.61 20L2.55 20L2.5 20L2.48 20L2.44 19.99L2.27 19.98L2.11 19.95L1.94 19.91L1.79 19.87L1.63 19.81L1.48 19.74L1.34 19.67L1.2 19.59L1.07 19.49L0.94 19.4L0.82 19.29L0.71 19.18L0.6 19.06L0.51 18.93L0.41 18.8L0.33 18.66L0.26 18.52L0.19 18.37L0.13 18.21L0.09 18.06L0.05 17.89L0.02 17.73L0.01 17.56L0 17.39L0 2.61L0.01 2.44L0.01 2.44L0.02 2.27L0.05 2.11L0.09 1.94L0.13 1.79L0.15 1.74L0.19 1.63L0.26 1.48L0.33 1.34L0.41 1.2L0.51 1.07L0.6 0.94L0.6 0.94L0.71 0.82L0.82 0.71L0.94 0.6L1.07 0.51L1.2 0.41L1.34 0.33L1.34 0.33L1.48 0.26L1.63 0.19L1.63 0.19L1.79 0.13L1.79 0.13L1.94 0.09L1.94 0.09L2.1 0.05L2.11 0.05L2.27 0.02L2.44 0.01L2.61 0L17.39 0L17.45 0L17.5 0L17.52 0L17.56 0.01L17.73 0.02L17.89 0.05L18.06 0.09L18.21 0.13L18.37 0.19L18.52 0.26L18.66 0.33L18.8 0.41L18.93 0.51L19.06 0.6L19.18 0.71L19.29 0.82L19.4 0.94L19.49 1.07L19.59 1.2L19.67 1.34L19.74 1.48L19.81 1.63L19.87 1.79L19.91 1.94L19.95 2.11L19.98 2.27L19.99 2.44L20 2.61L20 17.39L20 17.45L19.99 17.56ZM1.75 17.5L1.76 17.56L1.77 17.61L1.78 17.66L1.8 17.71L1.83 17.76L1.85 17.81L1.88 17.86L1.91 17.9L1.94 17.94L1.98 17.98L2.02 18.02L2.06 18.06L2.1 18.09L2.14 18.12L2.19 18.15L2.24 18.17L2.29 18.2L2.34 18.22L2.39 18.23L2.44 18.24L2.5 18.25L2.55 18.26L2.61 18.26L17.39 18.26L17.43 18.26L17.47 18.26L17.5 18.25L17.54 18.24L17.58 18.23L17.61 18.21L17.65 18.19L17.69 18.17L17.72 18.15L17.76 18.12L17.79 18.09L17.83 18.06L17.86 18.03L17.9 17.99L17.93 17.95L17.96 17.9L18 17.86L18.03 17.81L18.07 17.76L18.1 17.7L18.13 17.65L18.16 17.59L18.2 17.52L18.23 17.46L18.26 17.39L18.26 2.61L18.26 2.55L18.25 2.5L18.24 2.44L18.23 2.39L18.22 2.34L18.2 2.29L18.17 2.24L18.15 2.19L18.12 2.14L18.09 2.1L18.06 2.06L18.02 2.02L17.98 1.98L17.94 1.94L17.9 1.91L17.86 1.88L17.81 1.85L17.76 1.83L17.71 1.8L17.66 1.78L17.61 1.77L17.56 1.76L17.5 1.75L17.45 1.74L17.39 1.74L2.61 1.74L2.57 1.74L2.53 1.74L2.5 1.75L2.46 1.76L2.42 1.77L2.39 1.79L2.35 1.81L2.31 1.83L2.28 1.85L2.24 1.88L2.21 1.91L2.17 1.94L2.14 1.97L2.1 2.01L2.07 2.05L2.04 2.1L2 2.14L1.97 2.19L1.93 2.24L1.9 2.3L1.87 2.35L1.84 2.41L1.8 2.48L1.77 2.54L1.74 2.61L1.74 17.39L1.74 17.45L1.75 17.5Z"
    id="d1Mtokn2XL"/></defs><g><g>
  <use xlink:href="#d1Mtokn2XL" opacity="1" fill="#ffffff" fill-opacity="1"/></g></g></svg>
